<svg width="788" height="188" viewBox="0 0 788 188" fill="none" xmlns="http://www.w3.org/2000/svg">
<mask id="mask0_278_207" style="mask-type:alpha" maskUnits="userSpaceOnUse" x="0" y="0" width="788" height="188">
<path d="M119.274 183.344L36.3665 53.8339V183.344H0.834961V0.793945H45.1208L121.076 121.55V0.793945H156.608V183.344H119.274Z" fill="white"/>
<path d="M300.807 147.04C299.262 152.537 296.816 157.725 293.469 162.617C290.121 167.509 286.04 171.757 281.239 175.362C276.437 178.967 270.811 181.838 264.374 183.987C257.937 186.137 250.856 187.206 243.132 187.206C234.378 187.206 226.049 185.7 218.157 182.7C210.265 179.7 203.314 175.272 197.302 169.44C191.289 163.608 186.526 156.476 183.012 148.07C179.497 139.663 177.733 130.136 177.733 119.49C177.733 108.843 179.446 100.179 182.883 91.94C186.32 83.7008 190.903 76.7103 196.658 70.9557C202.412 65.2011 209.055 60.7468 216.612 57.567C224.169 54.3872 231.971 52.8037 240.042 52.8037C259.778 52.8037 275.149 58.6484 286.131 70.312C297.112 81.9885 302.609 98.0293 302.609 118.46C302.609 120.867 302.519 123.133 302.352 125.283C302.184 127.433 302.094 128.669 302.094 129.016H211.463C211.63 133.136 212.621 136.96 214.424 140.474C216.226 143.989 218.543 147.04 221.376 149.614C224.208 152.189 227.516 154.21 231.288 155.665C235.06 157.12 239.103 157.854 243.39 157.854C251.461 157.854 257.77 156.051 262.314 152.447C266.859 148.842 270.167 144.208 272.227 138.543L300.807 147.04ZM268.867 105.586C268.7 102.496 268.056 99.4454 266.936 96.4458C265.816 93.4462 264.104 90.7813 261.786 88.4641C259.469 86.1468 256.547 84.2543 253.032 82.7996C249.518 81.3449 245.347 80.611 240.545 80.611C236.077 80.611 232.138 81.3835 228.701 82.9283C225.263 84.4732 222.354 86.4429 219.947 88.8503C217.539 91.2577 215.698 93.9096 214.411 96.832C213.123 99.7543 212.39 102.664 212.222 105.586H268.867Z" fill="white"/>
<path d="M349.714 119.748L304.656 56.666H345.337C346.367 58.3782 348.079 61.0045 350.486 64.519C352.894 68.0335 355.378 71.6897 357.953 75.4617C360.528 79.2337 363.013 82.8899 365.42 86.4044C367.827 89.919 369.54 92.5452 370.569 94.2574L395.545 56.666H434.423L390.138 118.718L435.968 183.344H395.802L369.282 144.465C368.085 146.177 366.282 148.842 363.875 152.447C361.468 156.052 358.893 159.875 356.151 163.905C353.409 167.934 350.834 171.758 348.427 175.362C346.019 178.967 344.307 181.632 343.277 183.344H304.656L349.714 119.748Z" fill="white"/>
<path d="M501.109 52.8037C510.546 52.8037 519.352 54.4773 527.501 57.8245C535.65 61.1717 542.692 65.8062 548.614 71.7282C554.535 77.6501 559.17 84.7306 562.517 92.9699C565.864 101.209 567.538 110.221 567.538 120.005C567.538 129.789 565.864 138.762 562.517 146.911C559.17 155.06 554.535 162.141 548.614 168.153C542.692 174.165 535.65 178.838 527.501 182.185C519.352 185.532 510.546 187.206 501.109 187.206C491.673 187.206 482.867 185.532 474.718 182.185C466.569 178.838 459.527 174.165 453.605 168.153C447.683 162.141 443.049 155.06 439.701 146.911C436.354 138.762 434.681 129.789 434.681 120.005C434.681 110.221 436.354 101.209 439.701 92.9699C443.049 84.7306 447.683 77.6501 453.605 71.7282C459.527 65.8062 466.569 61.1717 474.718 57.8245C482.867 54.4773 491.673 52.8037 501.109 52.8037ZM501.109 156.051C505.229 156.051 509.258 155.279 513.211 153.734C517.163 152.189 520.587 149.911 523.51 146.911C526.432 143.911 528.788 140.178 530.59 135.711C532.393 131.244 533.294 126.017 533.294 120.005C533.294 113.993 532.393 108.766 530.59 104.299C528.788 99.8445 526.432 96.0982 523.51 93.0986C520.587 90.099 517.163 87.8204 513.211 86.2755C509.258 84.7307 505.229 83.9582 501.109 83.9582C496.99 83.9582 492.96 84.7307 489.008 86.2755C485.056 87.8204 481.631 90.099 478.709 93.0986C475.787 96.0982 473.431 99.8316 471.628 104.299C469.826 108.766 468.925 114.006 468.925 120.005C468.925 126.004 469.826 131.244 471.628 135.711C473.431 140.178 475.787 143.911 478.709 146.911C481.631 149.911 485.056 152.189 489.008 153.734C492.96 155.279 496.99 156.051 501.109 156.051Z" fill="white"/>
<path d="M664.092 90.6524C660.654 89.9701 657.23 89.6225 653.793 89.6225C649.326 89.6225 645.129 90.2276 641.176 91.4248C637.224 92.6221 633.8 94.6047 630.877 97.3468C627.955 100.089 625.599 103.745 623.797 108.289C621.994 112.834 621.093 118.55 621.093 125.412V183.344H586.849V56.6656H620.063V75.4613C621.956 71.3417 624.402 67.9559 627.402 65.2911C630.401 62.6262 633.581 60.6179 636.928 59.2404C640.275 57.8629 643.622 56.9231 646.97 56.4082C650.317 55.8932 653.355 55.6357 656.11 55.6357C657.487 55.6357 658.814 55.6744 660.101 55.7645C661.388 55.8546 662.714 55.9833 664.092 56.1507V90.6524Z" fill="white"/>
<path d="M673.618 148.842C673.618 143.178 674.609 138.157 676.579 133.78C678.549 129.403 681.252 125.579 684.69 122.322C688.127 119.065 692.118 116.49 696.662 114.598C701.207 112.718 706.15 111.341 711.467 110.478L742.622 105.844C746.226 105.329 748.711 104.26 750.088 102.625C751.466 100.99 752.148 99.0592 752.148 96.832C752.148 92.3648 750.384 88.5027 746.87 85.2456C743.355 81.9885 737.987 80.3536 730.778 80.3536C723.568 80.3536 717.427 82.4134 713.398 86.533C709.369 90.6526 707.09 95.4545 706.575 100.952L676.193 94.5147C676.708 89.5326 678.253 84.5633 680.827 79.5812C683.402 74.599 686.917 70.1447 691.384 66.1924C695.851 62.2402 701.335 59.0217 707.862 56.5371C714.389 54.0525 721.933 52.8037 730.52 52.8037C740.472 52.8037 748.968 54.1426 756.01 56.7946C763.052 59.4594 768.755 62.974 773.132 67.3511C777.509 71.7282 780.689 76.839 782.659 82.6709C784.629 88.5027 785.62 94.6048 785.62 100.952V163.261C785.62 166.698 785.787 170.341 786.135 174.203C786.482 178.065 786.817 181.117 787.165 183.344H755.753C755.405 181.632 755.109 179.263 754.852 176.263C754.594 173.264 754.465 170.56 754.465 168.153C751.208 173.135 746.522 177.512 740.433 181.284C734.344 185.056 726.568 186.948 717.131 186.948C710.437 186.948 704.386 185.88 698.979 183.73C693.572 181.58 688.977 178.748 685.205 175.233C681.433 171.719 678.549 167.676 676.579 163.132C674.609 158.587 673.618 153.824 673.618 148.842ZM724.341 161.458C727.945 161.458 731.421 160.982 734.769 160.042C738.116 159.102 741.077 157.467 743.651 155.15C746.226 152.833 748.286 149.833 749.831 146.139C751.376 142.444 752.148 137.771 752.148 132.106V126.442L723.568 130.819C719.101 131.501 715.368 133.097 712.368 135.582C709.369 138.067 707.862 141.8 707.862 146.782C707.862 150.554 709.24 153.953 711.982 156.953C714.724 159.952 718.844 161.458 724.341 161.458Z" fill="white"/>
</mask>
<g mask="url(#mask0_278_207)">
<rect width="921" height="210" transform="translate(-69 -11)" fill="url(#paint0_linear_278_207)"/>
</g>
<defs>
<linearGradient id="paint0_linear_278_207" x1="0" y1="0" x2="91.0327" y2="399.243" gradientUnits="userSpaceOnUse">
<stop stop-color="#EFD974"/>
<stop offset="1" stop-color="#78EEE0"/>
</linearGradient>
</defs>
</svg>
